<?xml version="1.0" encoding="UTF-8"?>
<svg id="Layer_1" data-name="Layer 1" xmlns="http://www.w3.org/2000/svg" viewBox="0 0 373.01 164.45">
  <defs>
    <style>
      .cls-1 {
        fill: #fff;
        stroke-width: 0px;
      }
    </style>
  </defs>
  <g>
    <path class="cls-1" d="m65.22,43.54h-.3c-.07-1.71-.71-3.17-1.92-4.39-1.22-1.22-2.68-1.82-4.39-1.82h-1.28v-.99h7.89v7.2Zm0,54.66v7.2h-7.89v-.99h1.28c1.71,0,3.17-.61,4.39-1.82,1.22-1.22,1.86-2.68,1.92-4.39h.3Zm11.74-61.86v69.06h-12.04V36.34h12.04Zm11.84,0c2.96,0,5.77.36,8.44,1.09,2.66.72,5.01,1.84,7.05,3.35,2.04,1.51,3.63,3.44,4.79,5.77,1.15,2.33,1.73,5.11,1.73,8.34,0,2.9-.63,5.76-1.87,8.58-1.25,2.83-3.09,5.18-5.53,7.05-2.43,1.87-5.43,2.94-8.98,3.21,1.78.59,3.47,1.69,5.08,3.3,1.61,1.61,2.94,3.21,4,4.79.06.07.48.67,1.23,1.82.76,1.15,1.69,2.55,2.81,4.19,1.12,1.64,2.28,3.29,3.5,4.93,1.22,1.64,2.28,3.03,3.21,4.14,1.45,1.71,2.78,3.11,4,4.19,1.22,1.09,2.52,1.91,3.9,2.47,1.38.56,2.96.84,4.74.84v.99h-8.19c-3.42,0-6.46-.36-9.13-1.09-2.66-.72-4.98-1.81-6.96-3.25s-3.68-3.26-5.13-5.43c-.39-.59-.95-1.5-1.68-2.71-.72-1.22-1.51-2.58-2.37-4.09-.86-1.51-1.69-2.97-2.52-4.39-.82-1.41-1.51-2.68-2.07-3.8-.56-1.12-.94-1.91-1.13-2.37-1.05-1.91-2.21-3.45-3.45-4.64-1.25-1.18-2.6-1.84-4.04-1.97v-.99c.13,0,.56.02,1.28.05.72.03,1.54.02,2.47-.05,1.78-.06,3.57-.39,5.38-.99,1.81-.59,3.44-1.69,4.88-3.3,1.45-1.61,2.5-3.86,3.16-6.76.13-.59.26-1.35.39-2.27.13-.92.16-1.87.1-2.86-.2-4.6-1.38-8.09-3.55-10.46-2.17-2.37-4.93-3.62-8.29-3.75-1.25-.06-2.57-.08-3.95-.05-1.38.03-2.58.05-3.6.05h-1.83c0-.06-.08-.43-.25-1.09-.16-.66-.41-1.61-.74-2.86h13.12Zm-12.13,61.86h.3c0,1.71.62,3.17,1.87,4.39,1.25,1.22,2.73,1.82,4.44,1.82h1.18v.99h-7.79v-7.2Z"/>
    <path class="cls-1" d="m141.09,43.44l-13.91-.3c-.92-1.51-2.27-2.86-4.05-4.05-1.78-1.18-3.72-1.78-5.82-1.78h-1.38v-.99h29.89v.99h-1.28c-1.45,0-2.55.67-3.3,2.02-.76,1.35-.81,2.71-.15,4.09Zm-3.85-7.01l19.93,36.5-10.75,2.07-23.28-38.58h14.11Zm8.98,61.76v7.2h-7.89v-.99h1.28c1.71,0,3.17-.61,4.39-1.82,1.22-1.22,1.86-2.68,1.92-4.39h.3Zm11.74-24.57v31.77h-12.04v-31.77h12.04Zm16.48-37.19h7.1l-24.47,39.17-4.54-.99,21.9-38.18Zm-16.77,61.76h.3c0,1.71.62,3.17,1.87,4.39,1.25,1.22,2.73,1.82,4.44,1.82h1.18v.99h-7.79v-7.2Zm12.73-54.76c.53-.92.66-1.86.39-2.81-.26-.95-.74-1.74-1.43-2.37-.69-.62-1.5-.94-2.42-.94h-1.18v-.99h22.99v.99h-1.38c-2.04,0-3.96.59-5.77,1.78-1.81,1.18-3.21,2.53-4.19,4.05l-7,.3Z"/>
    <path class="cls-1" d="m252.28,71.86c.33,3.55.23,7.01-.3,10.36-.53,3.35-1.48,6.5-2.86,9.42-1.38,2.93-3.29,5.49-5.72,7.7-2.43,2.2-5.43,3.93-8.98,5.18-3.55,1.25-7.7,1.87-12.43,1.87-3.29,0-6.53-.26-9.72-.79-3.19-.53-6.18-1.35-8.98-2.47-2.8-1.12-5.26-2.57-7.4-4.34-2.14-1.78-3.82-3.9-5.03-6.36-1.22-2.47-1.83-5.34-1.83-8.63,0-2.43.38-4.59,1.13-6.46.76-1.87,1.78-3.53,3.06-4.98,1.28-1.45,2.7-2.65,4.24-3.6,1.54-.95,3.12-1.76,4.74-2.42,1.61-.66,3.11-1.15,4.49-1.48l1.68,2.07c-.79.66-1.58,1.46-2.37,2.42-.79.95-1.51,2.07-2.17,3.35-.66,1.28-1.18,2.73-1.58,4.34-.39,1.61-.53,3.44-.39,5.48.06,3.22.71,6.08,1.92,8.58,1.22,2.5,2.84,4.6,4.88,6.31,2.04,1.71,4.41,3.01,7.1,3.9,2.7.89,5.59,1.33,8.68,1.33,3.49,0,6.53-.72,9.13-2.17,2.6-1.45,4.75-3.32,6.46-5.62,1.71-2.3,2.98-4.85,3.8-7.65.82-2.79,1.17-5.56,1.04-8.29-.13-2.73-.76-5.24-1.87-7.55-.72-1.51-1.6-2.65-2.61-3.4-1.02-.75-2.22-1.13-3.6-1.13h-1.48v-.99h21.9v.99h-1.38c-1.51,0-2.52.46-3.01,1.38-.49.92-.68,2.14-.54,3.65Zm-31.18-36.9c2.5,0,4.93.26,7.3.79,2.37.53,4.55,1.3,6.56,2.32,2.01,1.02,3.57,2.32,4.69,3.9l-2.96,13.12h-.89c0-3.02-.48-5.77-1.43-8.24-.95-2.47-2.39-4.44-4.29-5.92-1.91-1.48-4.34-2.22-7.3-2.22-3.42,0-6.25,1.17-8.49,3.5-2.24,2.34-3.35,5.28-3.35,8.83,0,3.95,1.41,7.66,4.24,11.15,2.83,3.49,6.87,7.56,12.13,12.23,1.45,1.18,3.04,2.57,4.78,4.14,1.74,1.58,3.57,3.19,5.48,4.83,1.91,1.64,3.71,3.19,5.43,4.64,3.09,2.63,5.97,5.1,8.63,7.4s5.19,4.24,7.6,5.82c2.4,1.58,4.72,2.63,6.96,3.16l.1.99c-2.17.13-4.75.23-7.74.3-2.99.07-6.15-.31-9.47-1.13-3.32-.82-6.56-2.38-9.72-4.69-1.97-1.51-3.96-3.09-5.97-4.74-2.01-1.64-3.95-3.26-5.82-4.83s-3.6-3.04-5.18-4.39c-1.58-1.35-2.96-2.55-4.14-3.6-3.82-3.35-7.2-6.58-10.16-9.67-2.96-3.09-5.3-6.28-7.01-9.57-1.71-3.29-2.57-6.87-2.57-10.75,0-2.83.59-5.33,1.78-7.5,1.18-2.17,2.83-3.98,4.93-5.43,2.1-1.45,4.5-2.55,7.2-3.3,2.7-.76,5.59-1.13,8.68-1.13Z"/>
    <path class="cls-1" d="m273.19,43.54h-.3c-.07-1.71-.71-3.17-1.92-4.39-1.22-1.22-2.68-1.82-4.39-1.82h-1.28v-.99h7.89v7.2Zm0,54.66v7.2h-7.89v-.99h1.28c1.71,0,3.17-.61,4.39-1.82,1.22-1.22,1.86-2.68,1.92-4.39h.3Zm11.74-61.86v69.06h-12.04V36.34h12.04Zm-.3,7.2v-7.2h7.89v.99h-1.28c-1.71,0-3.17.61-4.39,1.82-1.22,1.22-1.86,2.68-1.92,4.39h-.3Zm26.44,58.01l1.68,3.85h-28.12v-3.85h26.44Zm6.91-14.9l-4.93,18.75h-18.45l3.55-3.85c3.35,0,6.25-.61,8.68-1.83,2.43-1.22,4.47-2.96,6.12-5.23,1.64-2.27,2.99-4.88,4.04-7.84h.99Z"/>
  </g>
  <g>
    <path class="cls-1" d="m56.36,119.92h-.05c0-.27-.1-.49-.31-.66s-.46-.26-.75-.26h-.23v-.17h1.34v1.1Zm0,8.25v1.1h-1.34v-.17h.23c.29,0,.54-.09.75-.27.21-.18.31-.4.31-.65h.05Zm1.99-9.35v10.45h-2.04v-10.45h2.04Zm-.05,1.1v-1.1h1.34l-.02.17h-.19c-.3,0-.55.09-.76.26s-.31.4-.32.66h-.05Zm0,8.25h.05c.01.25.12.47.32.65.2.18.46.27.76.27h.21v.17h-1.34v-1.1Z"/>
    <path class="cls-1" d="m63.97,119.94h-.04c-.01-.28-.11-.5-.3-.68s-.43-.26-.71-.26h-.21v-.17h1.25v1.11Zm0,8.2v1.13h-1.25v-.17h.23c.28,0,.51-.1.7-.29.18-.19.28-.42.3-.67h.04Zm2.02-9.31v10.45h-2.05v-10.45h2.05Zm2.59,0c1.22,0,2.26.21,3.13.63s1.54,1.01,2.01,1.79c.47.78.71,1.71.71,2.8s-.24,2.03-.71,2.8c-.47.78-1.14,1.38-2.01,1.79s-1.91.63-3.13.63h-3.81l-.03-.63h3.71c1.17,0,2.1-.41,2.78-1.23s1.02-1.94,1.02-3.37-.34-2.55-1.01-3.37-1.6-1.23-2.79-1.23h-3.88v-.63h4.02Z"/>
    <path class="cls-1" d="m78.58,119.92h-.04c-.01-.27-.11-.49-.3-.66-.19-.17-.41-.26-.68-.26h-.23v-.17h1.36l-.12,1.1Zm0,8.25l.12,1.1h-1.36v-.17h.23c.27,0,.49-.09.68-.27.18-.18.28-.4.3-.65h.04Zm2-9.35v10.45h-2.04v-10.45h2.04Zm4.4,0v.64h-4.44v-.64h4.44Zm-.8,4.93v.64h-3.64v-.64h3.64Zm.68,4.87l.26.65h-4.58v-.65h4.32Zm1.06-2.31l-.77,2.96h-2.89l.56-.65c.53,0,.99-.09,1.37-.29.38-.19.69-.46.95-.81.26-.35.46-.75.63-1.22h.16Zm-1.74-3.86v1.34h-1.31v-.03c.36,0,.64-.11.84-.33.2-.22.3-.49.3-.82v-.16h.17Zm0,1.91v1.36h-.17v-.16c0-.32-.1-.6-.3-.82-.2-.22-.48-.34-.84-.35v-.04h1.31Zm.8-5.81v.45l-1.88-.17c.34,0,.7-.03,1.08-.1.38-.06.65-.12.8-.18Zm0,.87v1.64h-.19v-.19c0-.42-.12-.75-.35-1.01-.23-.26-.56-.38-.99-.38v-.05h1.53Z"/>
    <path class="cls-1" d="m90.43,128.09c-.13.32-.11.57.05.75s.34.26.54.26h.14v.17h-3.43v-.17h.14c.24,0,.49-.08.75-.24s.46-.41.63-.77h1.18Zm3.31-9.66l.05,1.79-3.85,9h-1.22l4.09-8.79s.05-.15.13-.31c.08-.16.16-.35.25-.57s.18-.43.25-.64c.08-.2.12-.36.13-.48h.16Zm1.69,7.22v.63h-4.51v-.63h4.51Zm-1.69-7.22l5.03,10.74h-2.42l-3.39-8.1.78-2.65Zm2.16,9.66h2.37c.16.36.37.62.63.77s.5.24.73.24h.14v.17h-4.6v-.17h.14c.2,0,.38-.09.54-.26s.18-.42.05-.75Z"/>
    <path class="cls-1" d="m100.27,118.53c.09.04.24.08.45.12.21.05.44.08.7.11s.49.04.71.04l-1.86.17v-.45Zm9.91.28v.65h-9.91v-.65h9.91Zm-8.37.59v.05c-.43.01-.76.14-1,.39s-.36.58-.36.98v.21h-.17v-1.64h1.53Zm2.42,8.77v1.1h-1.2v-.17h.19c.27,0,.49-.09.68-.27.18-.18.28-.4.3-.65h.04Zm2.04-9.3v10.39h-2.07v-10.39h2.07Zm-.07,9.3h.07c0,.25.1.47.29.65.19.18.42.27.69.27h.17v.17h-1.22v-1.1Zm3.99-9.64v.45l-1.88-.17c.23,0,.48-.01.73-.04.25-.03.49-.07.7-.11.22-.04.36-.09.44-.12Zm0,.87v1.64h-.19v-.21c.01-.41-.1-.73-.34-.98-.24-.25-.57-.38-1-.39v-.05h1.53Z"/>
    <path class="cls-1" d="m114.26,119.92h-.05c0-.27-.1-.49-.31-.66s-.46-.26-.75-.26h-.23v-.17h1.34v1.1Zm0,8.25v1.1h-1.34v-.17h.23c.29,0,.54-.09.75-.27.21-.18.31-.4.31-.65h.05Zm1.99-9.35v10.45h-2.04v-10.45h2.04Zm-.05,1.1v-1.1h1.34l-.02.17h-.19c-.3,0-.55.09-.76.26s-.31.4-.32.66h-.05Zm0,8.25h.05c.01.25.12.47.32.65.2.18.46.27.76.27h.21v.17h-1.34v-1.1Z"/>
    <path class="cls-1" d="m126.55,118.6c.88,0,1.69.13,2.44.38.74.26,1.39.62,1.93,1.1.55.48.97,1.05,1.26,1.71s.44,1.42.44,2.25-.15,1.59-.44,2.26-.72,1.24-1.26,1.71c-.55.48-1.19.84-1.93,1.1s-1.56.38-2.44.38-1.69-.13-2.44-.38c-.74-.25-1.38-.62-1.92-1.1-.54-.48-.96-1.05-1.25-1.71-.3-.67-.44-1.42-.44-2.26s.15-1.59.44-2.25c.3-.67.71-1.24,1.25-1.71.54-.48,1.18-.84,1.92-1.1.74-.25,1.55-.38,2.44-.38Zm0,10.27c.75,0,1.42-.2,2-.59.58-.39,1.04-.95,1.37-1.68s.5-1.58.5-2.55-.17-1.84-.5-2.56c-.33-.72-.79-1.28-1.37-1.67-.58-.39-1.25-.59-2-.59s-1.42.2-2,.59c-.58.4-1.03.95-1.36,1.67-.32.72-.49,1.57-.49,2.56s.16,1.83.49,2.55.78,1.29,1.36,1.68,1.25.59,2,.59Z"/>
    <path class="cls-1" d="m136.65,128.21v1.06h-1.29v-.17h.28c.27,0,.49-.08.68-.25.18-.17.28-.38.28-.64h.05Zm-.05-9.63l1.84,2.07v8.62h-1.84v-8.65c0-.59-.06-1.27-.17-2.04h.17Zm0,0l10.03,9.02.17,1.9-10.03-9.03-.17-1.88Zm1.84,9.63c.01.26.11.47.3.64.19.17.41.25.65.25h.3v.17h-1.29v-1.06h.04Zm6.49-8.32c-.01-.25-.11-.47-.3-.63-.19-.17-.41-.25-.66-.25h-.3v-.17h1.29v1.06h-.04Zm1.85-1.06v8.58c0,.4.01.75.04,1.06.03.31.07.65.13,1.03h-.16l-1.86-2.16v-8.51h1.85Zm-.05,1.06v-1.06h1.31v.17h-.3c-.26,0-.48.08-.67.25-.19.17-.29.38-.29.63h-.05Z"/>
    <path class="cls-1" d="m156.51,118.53c.09.04.24.08.45.12.21.05.44.08.7.11s.49.04.71.04l-1.86.17v-.45Zm9.91.28v.65h-9.91v-.65h9.91Zm-8.37.59v.05c-.43.01-.76.14-1,.39s-.36.58-.36.98v.21h-.17v-1.64h1.53Zm2.42,8.77v1.1h-1.2v-.17h.19c.27,0,.49-.09.68-.27.18-.18.28-.4.3-.65h.04Zm2.04-9.3v10.39h-2.07v-10.39h2.07Zm-.07,9.3h.07c0,.25.1.47.29.65.19.18.42.27.69.27h.17v.17h-1.22v-1.1Zm3.99-9.64v.45l-1.88-.17c.23,0,.48-.01.73-.04.25-.03.49-.07.7-.11.22-.04.36-.09.44-.12Zm0,.87v1.64h-.19v-.21c.01-.41-.1-.73-.34-.98-.24-.25-.57-.38-1-.39v-.05h1.53Z"/>
    <path class="cls-1" d="m174.82,118.6c.88,0,1.69.13,2.44.38.74.26,1.39.62,1.93,1.1.55.48.97,1.05,1.26,1.71s.44,1.42.44,2.25-.15,1.59-.44,2.26-.72,1.24-1.26,1.71c-.55.48-1.19.84-1.93,1.1s-1.56.38-2.44.38-1.69-.13-2.44-.38c-.74-.25-1.38-.62-1.92-1.1-.54-.48-.96-1.05-1.25-1.71-.3-.67-.44-1.42-.44-2.26s.15-1.59.44-2.25c.3-.67.71-1.24,1.25-1.71.54-.48,1.18-.84,1.92-1.1.74-.25,1.55-.38,2.44-.38Zm0,10.27c.75,0,1.42-.2,2-.59.58-.39,1.04-.95,1.37-1.68s.5-1.58.5-2.55-.17-1.84-.5-2.56c-.33-.72-.79-1.28-1.37-1.67-.58-.39-1.25-.59-2-.59s-1.42.2-2,.59c-.58.4-1.03.95-1.36,1.67-.32.72-.49,1.57-.49,2.56s.16,1.83.49,2.55.78,1.29,1.36,1.68,1.25.59,2,.59Z"/>
    <path class="cls-1" d="m191.41,119.92h-.03c-.01-.27-.11-.49-.29-.66-.18-.17-.4-.26-.65-.26h-.23v-.17h1.32l-.12,1.1Zm0,8.25l.12,1.1h-1.32v-.17h.21c.27,0,.49-.09.67-.27.18-.18.28-.4.29-.65h.03Zm2-9.35v10.45h-2.05v-10.45h2.05Zm1.81,0c.51,0,.99.05,1.44.16s.84.27,1.18.5.61.52.8.88c.19.36.29.8.29,1.31,0,.43-.09.85-.28,1.26-.19.41-.47.76-.84,1.05-.37.28-.84.46-1.39.53.29.09.58.29.88.59s.53.59.69.85c.04.06.12.19.25.39.13.2.3.44.5.71.2.27.4.54.61.81.23.3.44.54.63.72.19.18.38.31.58.39s.43.12.69.12v.17h-1.15c-.63,0-1.15-.06-1.58-.17-.43-.12-.79-.3-1.09-.54-.3-.24-.57-.55-.81-.91-.08-.13-.19-.3-.32-.52-.13-.22-.27-.45-.41-.69-.14-.24-.27-.46-.38-.68s-.19-.38-.23-.5c-.17-.35-.38-.62-.61-.8-.23-.18-.46-.28-.68-.29v-.16s.08,0,.19,0c.12,0,.26,0,.44,0,.27-.01.54-.05.81-.12.27-.07.52-.22.74-.45.22-.23.39-.59.51-1.08.04-.09.06-.21.08-.35s.02-.3,0-.47c-.01-.4-.08-.72-.21-.98-.13-.26-.29-.47-.49-.62-.2-.15-.41-.26-.64-.33-.23-.07-.45-.11-.66-.12-.34-.01-.63-.01-.89,0-.26,0-.41,0-.47,0-.01-.01-.03-.07-.05-.17-.02-.11-.06-.27-.1-.49h1.98Zm-1.84,9.35h.03c.01.27.12.49.31.66.2.17.42.26.66.26h.19l.02.17h-1.34l.12-1.1Z"/>
    <path class="cls-1" d="m204.38,119.92h-.04c-.01-.27-.11-.49-.3-.66-.19-.17-.41-.26-.68-.26h-.23v-.17h1.36l-.12,1.1Zm0,8.25l.12,1.1h-1.36v-.17h.23c.27,0,.49-.09.68-.27.18-.18.28-.4.3-.65h.04Zm2-9.35v10.45h-2.04v-10.45h2.04Zm4.4,0v.64h-4.44v-.64h4.44Zm-.8,4.93v.64h-3.64v-.64h3.64Zm.68,4.87l.26.65h-4.58v-.65h4.32Zm1.06-2.31l-.77,2.96h-2.89l.56-.65c.53,0,.99-.09,1.37-.29.38-.19.69-.46.95-.81.26-.35.46-.75.63-1.22h.16Zm-1.74-3.86v1.34h-1.31v-.03c.36,0,.64-.11.84-.33.2-.22.3-.49.3-.82v-.16h.17Zm0,1.91v1.36h-.17v-.16c0-.32-.1-.6-.3-.82-.2-.22-.48-.34-.84-.35v-.04h1.31Zm.8-5.81v.45l-1.88-.17c.34,0,.7-.03,1.08-.1.38-.06.65-.12.8-.18Zm0,.87v1.64h-.19v-.19c0-.42-.12-.75-.35-1.01-.23-.26-.56-.38-.99-.38v-.05h1.53Z"/>
    <path class="cls-1" d="m216.24,128.09c-.13.32-.11.57.05.75s.34.26.54.26h.14v.17h-3.43v-.17h.14c.24,0,.49-.08.75-.24s.46-.41.63-.77h1.18Zm3.31-9.66l.05,1.79-3.85,9h-1.22l4.09-8.79s.05-.15.13-.31c.08-.16.16-.35.25-.57s.18-.43.25-.64c.08-.2.12-.36.13-.48h.16Zm1.69,7.22v.63h-4.51v-.63h4.51Zm-1.69-7.22l5.03,10.74h-2.42l-3.39-8.1.78-2.65Zm2.16,9.66h2.37c.16.36.37.62.63.77s.5.24.73.24h.14v.17h-4.6v-.17h.14c.2,0,.38-.09.54-.26s.18-.42.05-.75Z"/>
    <path class="cls-1" d="m228.89,119.92h-.04c-.01-.27-.11-.49-.3-.66s-.42-.26-.69-.26h-.21v-.17h1.24v1.1Zm0,8.25l.12,1.1h-1.36v-.17h.23c.27,0,.49-.09.68-.27.18-.18.28-.4.3-.65h.04Zm2-9.35v10.45h-2.04v-10.45h2.04Zm-.05,1.1v-1.1h1.24v.17h-.19c-.28,0-.51.09-.71.26s-.29.4-.29.66h-.05Zm4.32,8.7l.28.65h-4.58v-.65h4.3Zm1.1-2.31l-.78,2.96h-2.89l.56-.65c.53,0,.99-.09,1.37-.29.38-.19.69-.46.95-.81.26-.35.46-.75.63-1.22h.17Z"/>
    <path class="cls-1" d="m239.98,119.92h-.05c0-.27-.1-.49-.31-.66s-.46-.26-.75-.26h-.23v-.17h1.34v1.1Zm0,8.25v1.1h-1.34v-.17h.23c.29,0,.54-.09.75-.27.21-.18.31-.4.31-.65h.05Zm1.99-9.35v10.45h-2.04v-10.45h2.04Zm-.05,1.1v-1.1h1.34l-.02.17h-.19c-.3,0-.55.09-.76.26s-.31.4-.32.66h-.05Zm0,8.25h.05c.01.25.12.47.32.65.2.18.46.27.76.27h.21v.17h-1.34v-1.1Z"/>
    <path class="cls-1" d="m255.16,118.6v.14l-6.35,10.53h-2.4v-.16l5.99-9.68h-5.74v-.63h6.67c.23,0,.48-.01.74-.03.26-.02.49-.05.7-.09.2-.04.34-.06.41-.09Zm-8.51-.07c.1.04.26.07.48.11.21.04.45.08.71.1s.5.05.72.06l-1.92.17v-.45Zm0,.87h1.55v.04c-.43.01-.76.14-1,.4-.24.25-.36.59-.36,1.01v.19h-.19v-1.64Zm8.46,9.24l-.12.63h-7.43v-.63h7.56Zm.85-2.33l-.82,2.96h-2.96l.59-.63c.55-.01,1.01-.11,1.39-.3.38-.18.71-.45.97-.8.27-.35.48-.76.64-1.24h.17Z"/>
    <path class="cls-1" d="m260.37,128.09c-.13.32-.11.57.05.75s.34.26.54.26h.14v.17h-3.43v-.17h.14c.24,0,.49-.08.75-.24s.46-.41.63-.77h1.18Zm3.31-9.66l.05,1.79-3.85,9h-1.22l4.09-8.79s.05-.15.13-.31c.08-.16.16-.35.25-.57s.18-.43.25-.64c.08-.2.12-.36.13-.48h.16Zm1.69,7.22v.63h-4.51v-.63h4.51Zm-1.69-7.22l5.03,10.74h-2.42l-3.39-8.1.78-2.65Zm2.16,9.66h2.37c.16.36.37.62.63.77s.5.24.73.24h.14v.17h-4.6v-.17h.14c.2,0,.38-.09.54-.26s.18-.42.05-.75Z"/>
    <path class="cls-1" d="m270.2,118.53c.09.04.24.08.45.12.21.05.44.08.7.11s.49.04.71.04l-1.86.17v-.45Zm9.91.28v.65h-9.91v-.65h9.91Zm-8.37.59v.05c-.43.01-.76.14-1,.39s-.36.58-.36.98v.21h-.17v-1.64h1.53Zm2.42,8.77v1.1h-1.2v-.17h.19c.27,0,.49-.09.68-.27.18-.18.28-.4.3-.65h.04Zm2.04-9.3v10.39h-2.07v-10.39h2.07Zm-.07,9.3h.07c0,.25.1.47.29.65.19.18.42.27.69.27h.17v.17h-1.22v-1.1Zm3.99-9.64v.45l-1.88-.17c.23,0,.48-.01.73-.04.25-.03.49-.07.7-.11.22-.04.36-.09.44-.12Zm0,.87v1.64h-.19v-.21c.01-.41-.1-.73-.34-.98-.24-.25-.57-.38-1-.39v-.05h1.53Z"/>
    <path class="cls-1" d="m284.2,119.92h-.05c0-.27-.1-.49-.31-.66s-.46-.26-.75-.26h-.23v-.17h1.34v1.1Zm0,8.25v1.1h-1.34v-.17h.23c.29,0,.54-.09.75-.27.21-.18.31-.4.31-.65h.05Zm1.99-9.35v10.45h-2.04v-10.45h2.04Zm-.05,1.1v-1.1h1.34l-.02.17h-.19c-.3,0-.55.09-.76.26s-.31.4-.32.66h-.05Zm0,8.25h.05c.01.25.12.47.32.65.2.18.46.27.76.27h.21v.17h-1.34v-1.1Z"/>
    <path class="cls-1" d="m296.49,118.6c.88,0,1.69.13,2.44.38.74.26,1.39.62,1.93,1.1.55.48.97,1.05,1.26,1.71s.44,1.42.44,2.25-.15,1.59-.44,2.26-.72,1.24-1.26,1.71c-.55.48-1.19.84-1.93,1.1s-1.56.38-2.44.38-1.69-.13-2.44-.38c-.74-.25-1.38-.62-1.92-1.1-.54-.48-.96-1.05-1.25-1.71-.3-.67-.44-1.42-.44-2.26s.15-1.59.44-2.25c.3-.67.71-1.24,1.25-1.71.54-.48,1.18-.84,1.92-1.1.74-.25,1.55-.38,2.44-.38Zm0,10.27c.75,0,1.42-.2,2-.59.58-.39,1.04-.95,1.37-1.68s.5-1.58.5-2.55-.17-1.84-.5-2.56c-.33-.72-.79-1.28-1.37-1.67-.58-.39-1.25-.59-2-.59s-1.42.2-2,.59c-.58.4-1.03.95-1.36,1.67-.32.72-.49,1.57-.49,2.56s.16,1.83.49,2.55.78,1.29,1.36,1.68,1.25.59,2,.59Z"/>
    <path class="cls-1" d="m306.58,128.21v1.06h-1.29v-.17h.28c.27,0,.49-.08.68-.25.18-.17.28-.38.28-.64h.05Zm-.05-9.63l1.84,2.07v8.62h-1.84v-8.65c0-.59-.06-1.27-.17-2.04h.17Zm0,0l10.03,9.02.17,1.9-10.03-9.03-.17-1.88Zm1.84,9.63c.01.26.11.47.3.64.19.17.41.25.65.25h.3v.17h-1.29v-1.06h.04Zm6.49-8.32c-.01-.25-.11-.47-.3-.63-.19-.17-.41-.25-.66-.25h-.3v-.17h1.29v1.06h-.04Zm1.85-1.06v8.58c0,.4.01.75.04,1.06.03.31.07.65.13,1.03h-.16l-1.86-2.16v-8.51h1.85Zm-.05,1.06v-1.06h1.31v.17h-.3c-.26,0-.48.08-.67.25-.19.17-.29.38-.29.63h-.05Z"/>
  </g>
</svg>