<?xml version="1.0" encoding="UTF-8"?>
<svg id="Layer_1" data-name="Layer 1" xmlns="http://www.w3.org/2000/svg" xmlns:xlink="http://www.w3.org/1999/xlink" viewBox="0 0 500 500">
  <defs>
    <style>
      .cls-1 {
        fill: url(#linear-gradient);
      }

      .cls-1, .cls-2, .cls-3, .cls-4, .cls-5, .cls-6, .cls-7 {
        stroke-width: 0px;
      }

      .cls-2 {
        fill: url(#linear-gradient-4);
      }

      .cls-3 {
        fill: url(#linear-gradient-2);
      }

      .cls-4 {
        fill: url(#linear-gradient-3);
      }

      .cls-5 {
        fill: url(#linear-gradient-7);
      }

      .cls-6 {
        fill: url(#linear-gradient-5);
      }

      .cls-7 {
        fill: url(#linear-gradient-6);
      }
    </style>
    <linearGradient id="linear-gradient" x1="109.86" y1="347.01" x2="307.93" y2="148.93" gradientUnits="userSpaceOnUse">
      <stop offset="0" stop-color="#ffe35f"/>
      <stop offset="0" stop-color="#de9f17"/>
      <stop offset=".32" stop-color="#cf9a15"/>
      <stop offset=".68" stop-color="#fff68a"/>
      <stop offset="1" stop-color="#ffcf45"/>
    </linearGradient>
    <linearGradient id="linear-gradient-2" x1="126.1" y1="363.25" x2="324.17" y2="165.17" xlink:href="#linear-gradient"/>
    <linearGradient id="linear-gradient-3" x1="189.68" y1="426.83" x2="387.76" y2="228.75" xlink:href="#linear-gradient"/>
    <linearGradient id="linear-gradient-4" x1="190.75" y1="427.9" x2="388.82" y2="229.82" xlink:href="#linear-gradient"/>
    <linearGradient id="linear-gradient-5" x1="156.11" y1="393.26" x2="354.18" y2="195.18" xlink:href="#linear-gradient"/>
    <linearGradient id="linear-gradient-6" x1="186.73" y1="423.88" x2="384.81" y2="225.81" xlink:href="#linear-gradient"/>
    <linearGradient id="linear-gradient-7" x1="69.04" y1="306.19" x2="267.11" y2="108.11" xlink:href="#linear-gradient"/>
  </defs>
  <g>
    <path class="cls-1" d="m192.55,283.47h25.75c8.83-15.31,17.55-30.43,26.22-45.46-11.87-20.59-23.54-40.83-35.54-61.64l-98.12,169.98h24.49c10.94-18.92,21.84-37.75,32.78-56.68,4.77,4.78,9.23,9.24,13.95,13.97-8.09,14.03-16.25,28.18-24.62,42.7h24.53c8.91-15.44,17.82-30.88,26.84-46.5-5.55-5.58-10.92-10.97-16.29-16.38Zm16.37-64.46h.1c3.6,6.23,7.19,12.44,10.97,18.98-4.6,7.98-9.22,16-13.86,24.05h-22.04c8.44-14.63,16.63-28.83,24.83-43.03Z"/>
    <path class="cls-3" d="m291.14,218.99c6.69,11.63,13.33,23.19,20.19,35.11h-21.99c-4.89-8.45-9.78-16.94-14.71-25.44h-24.54c9.19,15.91,18.08,31.35,26.85,46.56h71.15c-32.72-56.76-65.23-113.15-97.99-169.97-.58.96-8.98,15.47-12.37,21.3,12.53,21.58,28.87,50.24,40.87,71.04h-21.89c-9.85-17.07-19.74-34.21-29.97-51.93-4.28,7.36-8.26,14.21-12.32,21.21,10.07,17.43,20.09,34.77,30.1,52.11h46.6Z"/>
    <path class="cls-4" d="m389.12,346.36c-4.16-7.22-8.12-14.08-12.04-20.87h-147.57c7.77-13.44,18.15-31.39,29.02-50.18h7.5c-1.26-2.18-2.51-4.34-3.75-6.49-4.07-7.06-8.08-14.02-12.28-21.3-1.37,2.38-2.73,4.72-4.07,7.05l-3.99,6.91-49,84.88h24.5s0,0,0,0h171.67Z"/>
    <polygon class="cls-2" points="252 312.3 369.48 312.3 357.48 291.48 264.04 291.48 252 312.3"/>
  </g>
  <g>
    <path class="cls-6" d="m301.95,166.58c35.21,18.65,59.19,55.66,59.19,98.28,0,1.42-.04,2.83-.09,4.24l15.2,26.37c2.38-9.91,3.62-20.16,3.62-30.61,0-34.69-13.51-67.31-38.04-91.84-15.6-15.6-34.48-26.74-55.07-32.78l15.19,26.35Z"/>
    <path class="cls-7" d="m306.44,360.63c-16.55,9.77-35.84,15.39-56.45,15.39s-39.9-5.62-56.45-15.39h-31.29c24.01,22.04,54.94,34.12,87.74,34.12s63.73-12.08,87.74-34.12h-31.29Z"/>
    <path class="cls-5" d="m138.92,269.26c-.06-1.46-.09-2.92-.09-4.39,0-42.73,24.12-79.82,59.48-98.43l15.17-26.28c-20.7,6.03-39.67,17.19-55.34,32.86-24.53,24.53-38.04,57.15-38.04,91.84,0,10.48,1.24,20.76,3.64,30.69l15.19-26.3Z"/>
  </g>
</svg>