<?xml version="1.0" encoding="UTF-8"?>
<svg id="Layer_1" data-name="Layer 1" xmlns="http://www.w3.org/2000/svg" viewBox="0 0 670 500">
  <defs>
    <style>
      .cls-1 {
        fill: #fff;
        stroke-width: 0px;
      }
    </style>
  </defs>
  <g>
    <g>
      <path class="cls-1" d="m184.26,264.69h11.3c3.88-6.72,7.71-13.36,11.51-19.96-5.21-9.04-10.34-17.92-15.6-27.06l-43.07,74.62h10.75c4.8-8.3,9.58-16.57,14.39-24.88,2.09,2.1,4.05,4.06,6.12,6.13-3.55,6.16-7.13,12.37-10.81,18.74h10.77c3.91-6.78,7.82-13.56,11.78-20.41-2.43-2.45-4.79-4.82-7.15-7.19Zm7.18-28.29h.05c1.58,2.73,3.16,5.46,4.81,8.33-2.02,3.5-4.05,7.02-6.08,10.56h-9.67c3.71-6.42,7.3-12.65,10.9-18.89Z"/>
      <path class="cls-1" d="m227.54,236.39c2.94,5.11,5.85,10.18,8.86,15.41h-9.65c-2.15-3.71-4.3-7.43-6.46-11.17h-10.77c4.03,6.99,7.94,13.76,11.79,20.44h31.23c-14.36-24.92-28.63-49.67-43.01-74.61-.26.42-3.94,6.79-5.43,9.35,5.5,9.47,12.67,22.06,17.94,31.18h-9.61c-4.32-7.49-8.66-15.02-13.16-22.79-1.88,3.23-3.63,6.24-5.41,9.31,4.42,7.65,8.82,15.26,13.21,22.88h20.46Z"/>
      <path class="cls-1" d="m270.55,292.3c-1.83-3.17-3.56-6.18-5.28-9.16h-64.78c3.41-5.9,7.97-13.78,12.74-22.03h3.29c-.55-.96-1.1-1.91-1.65-2.85-1.79-3.1-3.55-6.15-5.39-9.35-.6,1.04-1.2,2.07-1.79,3.09l-1.75,3.03-21.51,37.26h10.76s0,0,0,0h75.36Z"/>
      <polygon class="cls-1" points="210.36 277.35 261.93 277.35 256.66 268.21 215.64 268.21 210.36 277.35"/>
    </g>
    <g>
      <path class="cls-1" d="m232.28,213.38c15.45,8.19,25.98,24.43,25.98,43.14,0,.62-.02,1.24-.04,1.86l6.67,11.58c1.05-4.35,1.59-8.85,1.59-13.44,0-15.23-5.93-29.55-16.7-40.32-6.85-6.85-15.13-11.74-24.17-14.39l6.67,11.57Z"/>
      <path class="cls-1" d="m234.25,298.56c-7.26,4.29-15.73,6.76-24.78,6.76s-17.52-2.47-24.78-6.76h-13.73c10.54,9.68,24.12,14.98,38.52,14.98s27.98-5.3,38.52-14.98h-13.73Z"/>
      <path class="cls-1" d="m160.72,258.45c-.02-.64-.04-1.28-.04-1.93,0-18.76,10.59-35.04,26.11-43.21l6.66-11.53c-9.09,2.65-17.41,7.55-24.29,14.42-10.77,10.77-16.7,25.09-16.7,40.32,0,4.6.54,9.11,1.6,13.47l6.67-11.54Z"/>
    </g>
  </g>
  <g>
    <path class="cls-1" d="m294.87,218.52h-.27c-.06-1.53-.63-2.85-1.73-3.94-1.09-1.09-2.41-1.64-3.94-1.64h-1.15v-.89h7.08v6.46Zm0,49.03v6.46h-7.08v-.88h1.15c1.53,0,2.85-.54,3.94-1.64,1.09-1.09,1.67-2.4,1.73-3.94h.27Zm10.53-55.49v61.95h-10.8v-61.95h10.8Zm10.62,0c2.65,0,5.18.33,7.57.97,2.39.65,4.5,1.65,6.33,3.01,1.83,1.36,3.26,3.08,4.29,5.18,1.03,2.09,1.55,4.59,1.55,7.48,0,2.6-.56,5.16-1.68,7.7-1.12,2.54-2.77,4.65-4.96,6.33-2.18,1.68-4.87,2.64-8.05,2.88,1.59.53,3.11,1.52,4.56,2.96,1.45,1.45,2.64,2.88,3.58,4.29.06.06.43.6,1.11,1.64.68,1.03,1.52,2.29,2.52,3.76,1,1.47,2.05,2.95,3.14,4.43,1.09,1.47,2.05,2.71,2.88,3.72,1.3,1.53,2.49,2.79,3.58,3.76,1.09.97,2.26,1.71,3.5,2.21,1.24.5,2.65.75,4.25.75v.88h-7.34c-3.07,0-5.8-.32-8.19-.97-2.39-.65-4.47-1.62-6.24-2.92-1.77-1.3-3.3-2.92-4.6-4.87-.35-.53-.86-1.34-1.5-2.43-.65-1.09-1.36-2.31-2.12-3.67-.77-1.36-1.52-2.67-2.26-3.94-.74-1.27-1.36-2.4-1.86-3.41-.5-1-.84-1.71-1.02-2.12-.94-1.71-1.98-3.1-3.1-4.16-1.12-1.06-2.33-1.65-3.63-1.77v-.89c.12,0,.5.02,1.15.04.65.03,1.39.02,2.21-.04,1.59-.06,3.2-.35,4.82-.89,1.62-.53,3.08-1.52,4.38-2.96,1.3-1.44,2.24-3.46,2.83-6.06.12-.53.24-1.21.35-2.04.12-.83.15-1.68.09-2.57-.18-4.13-1.24-7.26-3.19-9.38-1.95-2.12-4.42-3.24-7.43-3.36-1.12-.06-2.3-.07-3.54-.04-1.24.03-2.32.04-3.23.04h-1.64c0-.06-.07-.38-.22-.97-.15-.59-.37-1.45-.66-2.57h11.77Zm-10.88,55.49h.27c0,1.53.56,2.85,1.68,3.94,1.12,1.09,2.45,1.64,3.98,1.64h1.06v.88h-6.99v-6.46Z"/>
    <path class="cls-1" d="m362.92,218.43l-12.48-.27c-.83-1.36-2.04-2.57-3.63-3.63-1.59-1.06-3.33-1.59-5.22-1.59h-1.24v-.89h26.81v.89h-1.15c-1.3,0-2.29.61-2.96,1.81-.68,1.21-.72,2.43-.13,3.67Zm-3.45-6.28l17.88,32.74-9.65,1.86-20.88-34.6h12.65Zm8.05,55.4v6.46h-7.08v-.88h1.15c1.53,0,2.85-.54,3.94-1.64,1.09-1.09,1.67-2.4,1.73-3.94h.27Zm10.53-22.03v28.49h-10.8v-28.49h10.8Zm14.78-33.36h6.37l-21.95,35.13-4.07-.89,19.65-34.25Zm-15.04,55.4h.27c0,1.53.56,2.85,1.68,3.94,1.12,1.09,2.45,1.64,3.98,1.64h1.06v.88h-6.99v-6.46Zm11.42-49.11c.47-.83.59-1.67.35-2.52-.24-.85-.66-1.56-1.28-2.12-.62-.56-1.34-.84-2.17-.84h-1.06v-.89h20.62v.89h-1.24c-1.83,0-3.56.53-5.18,1.59-1.62,1.06-2.88,2.27-3.76,3.63l-6.28.27Z"/>
    <path class="cls-1" d="m462.66,243.92c.29,3.19.21,6.28-.27,9.29-.47,3.01-1.33,5.83-2.57,8.45-1.24,2.62-2.95,4.93-5.13,6.9-2.18,1.98-4.87,3.53-8.05,4.65-3.19,1.12-6.9,1.68-11.15,1.68-2.95,0-5.86-.24-8.72-.71-2.86-.47-5.55-1.21-8.05-2.21-2.51-1-4.72-2.3-6.64-3.89-1.92-1.59-3.42-3.49-4.51-5.71-1.09-2.21-1.64-4.79-1.64-7.74,0-2.18.34-4.11,1.02-5.8.68-1.68,1.59-3.17,2.74-4.47,1.15-1.3,2.42-2.37,3.81-3.23,1.39-.85,2.8-1.58,4.25-2.17,1.44-.59,2.79-1.03,4.03-1.33l1.5,1.86c-.71.59-1.42,1.31-2.12,2.17-.71.86-1.36,1.86-1.95,3.01-.59,1.15-1.06,2.45-1.42,3.89-.35,1.45-.47,3.08-.35,4.91.06,2.89.63,5.46,1.73,7.7,1.09,2.24,2.55,4.13,4.38,5.66,1.83,1.53,3.95,2.7,6.37,3.5,2.42.8,5.01,1.19,7.79,1.19,3.13,0,5.85-.65,8.19-1.95,2.33-1.3,4.26-2.98,5.8-5.04,1.53-2.06,2.67-4.35,3.41-6.86.74-2.51,1.05-4.98.93-7.43-.12-2.45-.68-4.7-1.68-6.77-.65-1.36-1.43-2.37-2.34-3.05-.92-.68-1.99-1.02-3.23-1.02h-1.33v-.89h19.65v.89h-1.24c-1.36,0-2.26.41-2.7,1.24-.44.83-.61,1.92-.49,3.27Zm-27.96-33.1c2.24,0,4.42.24,6.55.71,2.12.47,4.08,1.17,5.88,2.08,1.8.92,3.2,2.08,4.2,3.5l-2.65,11.77h-.8c0-2.71-.43-5.18-1.28-7.39-.86-2.21-2.14-3.98-3.85-5.31-1.71-1.33-3.89-1.99-6.55-1.99-3.07,0-5.61,1.05-7.61,3.14-2.01,2.09-3.01,4.73-3.01,7.92,0,3.54,1.27,6.87,3.81,10,2.54,3.13,6.16,6.78,10.88,10.97,1.3,1.06,2.73,2.3,4.29,3.72,1.56,1.42,3.2,2.86,4.91,4.34,1.71,1.47,3.33,2.86,4.87,4.16,2.77,2.36,5.35,4.57,7.74,6.64s4.66,3.81,6.81,5.22c2.15,1.42,4.23,2.36,6.24,2.83l.09.88c-1.95.12-4.26.21-6.95.27-2.69.06-5.52-.28-8.5-1.02-2.98-.74-5.88-2.14-8.72-4.2-1.77-1.36-3.56-2.77-5.35-4.25-1.8-1.47-3.54-2.92-5.22-4.34s-3.23-2.73-4.65-3.94c-1.42-1.21-2.65-2.29-3.72-3.23-3.42-3.01-6.46-5.9-9.11-8.67-2.65-2.77-4.75-5.63-6.28-8.58-1.53-2.95-2.3-6.16-2.3-9.65,0-2.54.53-4.78,1.59-6.72,1.06-1.95,2.54-3.57,4.42-4.87,1.89-1.3,4.04-2.29,6.46-2.96,2.42-.68,5.01-1.02,7.79-1.02Z"/>
    <path class="cls-1" d="m481.42,218.52h-.26c-.06-1.53-.63-2.85-1.73-3.94-1.09-1.09-2.4-1.64-3.94-1.64h-1.15v-.89h7.08v6.46Zm0,49.03v6.46h-7.08v-.88h1.15c1.53,0,2.85-.54,3.94-1.64,1.09-1.09,1.67-2.4,1.73-3.94h.26Zm10.53-55.49v61.95h-10.8v-61.95h10.8Zm-.27,6.46v-6.46h7.08v.89h-1.15c-1.53,0-2.85.55-3.94,1.64-1.09,1.09-1.67,2.4-1.73,3.94h-.27Zm23.72,52.04l1.5,3.45h-25.22v-3.45h23.72Zm6.19-13.36l-4.42,16.81h-16.55l3.19-3.45c3.01,0,5.6-.55,7.79-1.64,2.18-1.09,4.01-2.65,5.49-4.69,1.47-2.03,2.68-4.38,3.63-7.04h.89Z"/>
  </g>
  <g>
    <path class="cls-1" d="m286.93,287.03h-.05c0-.24-.09-.44-.28-.59s-.41-.23-.67-.23h-.2v-.16h1.2v.98Zm0,7.4v.98h-1.2v-.16h.2c.26,0,.48-.08.67-.24.19-.16.28-.36.28-.58h.05Zm1.78-8.39v9.37h-1.83v-9.37h1.83Zm-.05.98v-.98h1.2l-.02.16h-.17c-.27,0-.5.08-.68.23s-.28.35-.29.59h-.05Zm0,7.4h.05c.01.23.11.42.29.58.18.16.41.24.68.24h.19v.16h-1.2v-.98Z"/>
    <path class="cls-1" d="m293.75,287.05h-.03c-.01-.25-.1-.45-.27-.61s-.38-.23-.63-.23h-.19v-.16h1.12v1Zm0,7.35v1.02h-1.12v-.16h.2c.25,0,.46-.09.62-.26.17-.17.25-.37.26-.6h.03Zm1.81-8.35v9.37h-1.84v-9.37h1.84Zm2.33,0c1.09,0,2.03.19,2.81.56s1.38.91,1.8,1.61c.42.7.63,1.53.63,2.51s-.21,1.82-.63,2.51c-.42.7-1.02,1.23-1.8,1.61s-1.72.56-2.81.56h-3.42l-.03-.56h3.33c1.05,0,1.88-.37,2.49-1.1s.91-1.74.91-3.02-.3-2.29-.91-3.02-1.44-1.1-2.5-1.1h-3.48v-.56h3.61Z"/>
    <path class="cls-1" d="m306.85,287.03h-.03c-.01-.24-.1-.44-.26-.59-.17-.16-.37-.23-.61-.23h-.2v-.16h1.22l-.11.98Zm0,7.4l.11.98h-1.22v-.16h.2c.24,0,.44-.08.61-.24.17-.16.25-.36.26-.58h.03Zm1.8-8.39v9.37h-1.83v-9.37h1.83Zm3.95,0v.58h-3.98v-.58h3.98Zm-.72,4.42v.58h-3.26v-.58h3.26Zm.61,4.37l.23.58h-4.11v-.58h3.87Zm.95-2.08l-.69,2.65h-2.59l.5-.58c.48,0,.89-.08,1.23-.26.34-.17.62-.41.85-.73.23-.31.42-.68.56-1.09h.14Zm-1.56-3.47v1.2h-1.17v-.03c.32,0,.57-.1.75-.3.18-.2.26-.44.26-.73v-.14h.16Zm0,1.72v1.22h-.16v-.14c0-.29-.09-.54-.26-.74-.18-.2-.43-.3-.75-.31v-.03h1.17Zm.72-5.22v.41l-1.69-.16c.3,0,.62-.03.97-.09.34-.06.58-.11.72-.16Zm0,.78v1.47h-.17v-.17c0-.37-.1-.68-.31-.9-.21-.23-.5-.34-.89-.34v-.05h1.37Z"/>
    <path class="cls-1" d="m317.49,294.36c-.11.29-.1.52.05.67s.31.23.48.23h.12v.16h-3.08v-.16h.12c.22,0,.44-.07.67-.21s.42-.37.56-.69h1.06Zm2.97-8.67l.05,1.61-3.45,8.07h-1.09l3.67-7.88s.05-.14.12-.28c.07-.15.14-.32.23-.52s.16-.39.23-.57c.07-.18.11-.32.12-.43h.14Zm1.51,6.48v.56h-4.04v-.56h4.04Zm-1.51-6.48l4.51,9.63h-2.17l-3.04-7.26.7-2.37Zm1.94,8.67h2.12c.15.32.33.55.56.69s.45.21.66.21h.12v.16h-4.12v-.16h.12c.18,0,.34-.08.48-.23s.16-.38.05-.67Z"/>
    <path class="cls-1" d="m326.31,285.78c.08.03.22.07.41.11.19.04.4.08.62.1s.44.04.64.04l-1.67.16v-.41Zm8.88.25v.58h-8.88v-.58h8.88Zm-7.51.53v.05c-.39.01-.68.13-.9.35s-.32.52-.32.88v.19h-.16v-1.47h1.37Zm2.17,7.87v.98h-1.08v-.16h.17c.24,0,.44-.08.61-.24.17-.16.25-.36.26-.58h.03Zm1.83-8.34v9.32h-1.86v-9.32h1.86Zm-.06,8.34h.06c0,.23.09.42.26.58.17.16.38.24.62.24h.16v.16h-1.09v-.98Zm3.58-8.65v.41l-1.69-.16c.21,0,.43-.01.66-.04.23-.03.44-.06.63-.1.19-.04.33-.08.4-.11Zm0,.78v1.47h-.17v-.19c.01-.36-.09-.66-.3-.88-.21-.22-.51-.34-.9-.35v-.05h1.37Z"/>
    <path class="cls-1" d="m338.86,287.03h-.05c0-.24-.09-.44-.28-.59s-.41-.23-.67-.23h-.2v-.16h1.2v.98Zm0,7.4v.98h-1.2v-.16h.2c.26,0,.48-.08.67-.24.19-.16.28-.36.28-.58h.05Zm1.78-8.39v9.37h-1.83v-9.37h1.83Zm-.05.98v-.98h1.2l-.02.16h-.17c-.27,0-.5.08-.68.23s-.28.35-.29.59h-.05Zm0,7.4h.05c.01.23.11.42.29.58.18.16.41.24.68.24h.19v.16h-1.2v-.98Z"/>
    <path class="cls-1" d="m349.89,285.85c.79,0,1.52.11,2.19.34.67.23,1.24.56,1.73.98.49.43.87.94,1.13,1.54s.4,1.27.4,2.02-.13,1.42-.4,2.02-.64,1.11-1.13,1.54c-.49.43-1.07.76-1.73.98s-1.39.34-2.19.34-1.52-.11-2.19-.34c-.67-.23-1.24-.56-1.73-.98-.48-.43-.86-.94-1.12-1.54-.27-.6-.4-1.27-.4-2.02s.13-1.42.4-2.02c.26-.6.64-1.11,1.12-1.54.48-.43,1.06-.75,1.73-.98.67-.23,1.39-.34,2.19-.34Zm0,9.21c.68,0,1.28-.18,1.8-.53.52-.35.93-.86,1.23-1.51s.45-1.41.45-2.29-.15-1.65-.45-2.29c-.3-.64-.71-1.14-1.23-1.5-.52-.35-1.12-.53-1.8-.53s-1.28.18-1.8.53c-.52.35-.93.85-1.22,1.5-.29.65-.44,1.41-.44,2.29s.15,1.64.44,2.29.7,1.15,1.22,1.51,1.12.53,1.8.53Z"/>
    <path class="cls-1" d="m358.94,294.46v.95h-1.16v-.16h.25c.24,0,.44-.07.61-.23.17-.15.25-.34.25-.57h.05Zm-.05-8.63l1.65,1.86v7.73h-1.65v-7.76c0-.53-.05-1.14-.16-1.83h.16Zm0,0l8.99,8.09.16,1.7-8.99-8.1-.16-1.69Zm1.65,8.63c.01.23.1.42.27.57.17.15.37.23.59.23h.27v.16h-1.16v-.95h.03Zm5.82-7.46c-.01-.23-.1-.42-.26-.57-.17-.15-.36-.23-.59-.23h-.27v-.16h1.16v.95h-.03Zm1.66-.95v7.7c0,.35.01.67.04.95.03.28.06.59.12.92h-.14l-1.67-1.94v-7.64h1.66Zm-.05.95v-.95h1.17v.16h-.27c-.23,0-.43.08-.6.23-.17.15-.26.34-.26.57h-.05Z"/>
    <path class="cls-1" d="m376.76,285.78c.08.03.22.07.41.11.19.04.4.08.62.1s.44.04.64.04l-1.67.16v-.41Zm8.88.25v.58h-8.88v-.58h8.88Zm-7.51.53v.05c-.39.01-.68.13-.9.35s-.32.52-.32.88v.19h-.16v-1.47h1.37Zm2.17,7.87v.98h-1.08v-.16h.17c.24,0,.44-.08.61-.24.17-.16.25-.36.26-.58h.03Zm1.83-8.34v9.32h-1.86v-9.32h1.86Zm-.06,8.34h.06c0,.23.09.42.26.58.17.16.38.24.62.24h.16v.16h-1.09v-.98Zm3.58-8.65v.41l-1.69-.16c.21,0,.43-.01.66-.04.23-.03.44-.06.63-.1.19-.04.33-.08.4-.11Zm0,.78v1.47h-.17v-.19c.01-.36-.09-.66-.3-.88-.21-.22-.51-.34-.9-.35v-.05h1.37Z"/>
    <path class="cls-1" d="m393.18,285.85c.79,0,1.52.11,2.19.34.67.23,1.24.56,1.73.98.49.43.87.94,1.13,1.54s.4,1.27.4,2.02-.13,1.42-.4,2.02-.64,1.11-1.13,1.54c-.49.43-1.07.76-1.73.98s-1.39.34-2.19.34-1.52-.11-2.19-.34c-.67-.23-1.24-.56-1.73-.98-.48-.43-.86-.94-1.12-1.54-.27-.6-.4-1.27-.4-2.02s.13-1.42.4-2.02c.26-.6.64-1.11,1.12-1.54.48-.43,1.06-.75,1.73-.98.67-.23,1.39-.34,2.19-.34Zm0,9.21c.68,0,1.28-.18,1.8-.53.52-.35.93-.86,1.23-1.51s.45-1.41.45-2.29-.15-1.65-.45-2.29c-.3-.64-.71-1.14-1.23-1.5-.52-.35-1.12-.53-1.8-.53s-1.28.18-1.8.53c-.52.35-.93.85-1.22,1.5-.29.65-.44,1.41-.44,2.29s.15,1.64.44,2.29.7,1.15,1.22,1.51,1.12.53,1.8.53Z"/>
    <path class="cls-1" d="m408.06,287.03h-.03c-.01-.24-.1-.44-.26-.59-.16-.16-.36-.23-.59-.23h-.2v-.16h1.19l-.11.98Zm0,7.4l.11.98h-1.19v-.16h.19c.24,0,.44-.08.6-.24.16-.16.25-.36.26-.58h.03Zm1.8-8.39v9.37h-1.84v-9.37h1.84Zm1.62,0c.46,0,.89.05,1.29.14s.75.24,1.06.45.55.47.72.79c.17.32.26.71.26,1.17,0,.38-.08.76-.25,1.13-.17.37-.42.68-.75.94-.33.25-.75.41-1.25.48.26.08.52.26.79.53s.47.53.62.77c.03.05.11.17.23.35.12.18.27.4.45.64.18.25.36.49.55.73.21.27.4.49.56.65.17.16.34.28.52.35s.39.11.62.11v.16h-1.03c-.56,0-1.04-.05-1.42-.16-.39-.1-.71-.27-.98-.48-.26-.22-.51-.49-.73-.81-.07-.11-.17-.27-.29-.47-.12-.2-.24-.4-.37-.62-.12-.21-.24-.42-.34-.61s-.17-.34-.2-.45c-.16-.31-.34-.55-.55-.72-.21-.17-.41-.25-.61-.26v-.14s.07,0,.17,0c.1,0,.23,0,.39,0,.24-.01.48-.05.73-.11.24-.06.47-.2.66-.41.2-.21.35-.53.45-.97.03-.08.05-.19.07-.31s.02-.27,0-.42c-.01-.35-.07-.65-.19-.88-.11-.23-.26-.42-.44-.55-.18-.13-.37-.23-.58-.3-.21-.06-.41-.1-.59-.11-.3-.01-.57-.01-.8,0-.23,0-.37,0-.42,0-.01-.01-.03-.06-.05-.16-.02-.09-.05-.24-.09-.44h1.78Zm-1.65,8.39h.03c.01.24.1.44.28.59.18.16.37.23.59.23h.17l.02.16h-1.2l.11-.98Z"/>
    <path class="cls-1" d="m419.7,287.03h-.03c-.01-.24-.1-.44-.26-.59-.17-.16-.37-.23-.61-.23h-.2v-.16h1.22l-.11.98Zm0,7.4l.11.98h-1.22v-.16h.2c.24,0,.44-.08.61-.24.17-.16.25-.36.26-.58h.03Zm1.8-8.39v9.37h-1.83v-9.37h1.83Zm3.95,0v.58h-3.98v-.58h3.98Zm-.72,4.42v.58h-3.26v-.58h3.26Zm.61,4.37l.23.58h-4.11v-.58h3.87Zm.95-2.08l-.69,2.65h-2.59l.5-.58c.48,0,.89-.08,1.23-.26.34-.17.62-.41.85-.73.23-.31.42-.68.56-1.09h.14Zm-1.56-3.47v1.2h-1.17v-.03c.32,0,.57-.1.75-.3.18-.2.26-.44.26-.73v-.14h.16Zm0,1.72v1.22h-.16v-.14c0-.29-.09-.54-.26-.74-.18-.2-.43-.3-.75-.31v-.03h1.17Zm.72-5.22v.41l-1.69-.16c.3,0,.62-.03.97-.09.34-.06.58-.11.72-.16Zm0,.78v1.47h-.17v-.17c0-.37-.1-.68-.31-.9-.21-.23-.5-.34-.89-.34v-.05h1.37Z"/>
    <path class="cls-1" d="m430.33,294.36c-.11.29-.1.52.05.67s.31.23.48.23h.12v.16h-3.08v-.16h.12c.22,0,.44-.07.67-.21s.42-.37.56-.69h1.06Zm2.97-8.67l.05,1.61-3.45,8.07h-1.09l3.67-7.88s.05-.14.12-.28c.07-.15.14-.32.23-.52s.16-.39.23-.57c.07-.18.11-.32.12-.43h.14Zm1.51,6.48v.56h-4.04v-.56h4.04Zm-1.51-6.48l4.51,9.63h-2.17l-3.04-7.26.7-2.37Zm1.94,8.67h2.12c.15.32.33.55.56.69s.45.21.66.21h.12v.16h-4.12v-.16h.12c.18,0,.34-.08.48-.23s.16-.38.05-.67Z"/>
    <path class="cls-1" d="m441.68,287.03h-.03c-.01-.24-.1-.44-.27-.59s-.38-.23-.62-.23h-.19v-.16h1.11v.98Zm0,7.4l.11.98h-1.22v-.16h.2c.24,0,.44-.08.61-.24.17-.16.25-.36.26-.58h.03Zm1.8-8.39v9.37h-1.83v-9.37h1.83Zm-.05.98v-.98h1.11v.16h-.17c-.25,0-.46.08-.63.23s-.26.35-.26.59h-.05Zm3.87,7.81l.25.58h-4.11v-.58h3.86Zm.98-2.08l-.7,2.65h-2.59l.5-.58c.48,0,.89-.08,1.23-.26.34-.17.62-.41.85-.73.23-.31.42-.68.56-1.09h.16Z"/>
    <path class="cls-1" d="m451.63,287.03h-.05c0-.24-.09-.44-.28-.59s-.41-.23-.67-.23h-.2v-.16h1.2v.98Zm0,7.4v.98h-1.2v-.16h.2c.26,0,.48-.08.67-.24.19-.16.28-.36.28-.58h.05Zm1.78-8.39v9.37h-1.83v-9.37h1.83Zm-.05.98v-.98h1.2l-.02.16h-.17c-.27,0-.5.08-.68.23s-.28.35-.29.59h-.05Zm0,7.4h.05c.01.23.11.42.29.58.18.16.41.24.68.24h.19v.16h-1.2v-.98Z"/>
    <path class="cls-1" d="m465.24,285.85v.12l-5.7,9.45h-2.15v-.14l5.37-8.68h-5.15v-.56h5.98c.21,0,.43-.01.66-.03.23-.02.44-.05.62-.08.18-.03.31-.06.37-.08Zm-7.64-.06c.09.03.24.07.43.1.19.04.41.07.64.09s.45.04.65.05l-1.72.16v-.41Zm0,.78h1.39v.03c-.39.01-.68.13-.9.36-.21.23-.32.53-.32.91v.17h-.17v-1.47Zm7.59,8.29l-.11.56h-6.67v-.56h6.78Zm.77-2.09l-.73,2.65h-2.65l.53-.56c.49-.01.91-.1,1.25-.27.34-.17.63-.4.87-.72.24-.31.43-.68.58-1.11h.16Z"/>
    <path class="cls-1" d="m469.91,294.36c-.11.29-.1.52.05.67s.31.23.48.23h.12v.16h-3.08v-.16h.12c.22,0,.44-.07.67-.21s.42-.37.56-.69h1.06Zm2.97-8.67l.05,1.61-3.45,8.07h-1.09l3.67-7.88s.05-.14.12-.28c.07-.15.14-.32.23-.52s.16-.39.23-.57c.07-.18.11-.32.12-.43h.14Zm1.51,6.48v.56h-4.04v-.56h4.04Zm-1.51-6.48l4.51,9.63h-2.17l-3.04-7.26.7-2.37Zm1.94,8.67h2.12c.15.32.33.55.56.69s.45.21.66.21h.12v.16h-4.12v-.16h.12c.18,0,.34-.08.48-.23s.16-.38.05-.67Z"/>
    <path class="cls-1" d="m478.73,285.78c.08.03.22.07.41.11.19.04.4.08.62.1s.44.04.64.04l-1.67.16v-.41Zm8.88.25v.58h-8.88v-.58h8.88Zm-7.51.53v.05c-.39.01-.68.13-.9.35s-.32.52-.32.88v.19h-.16v-1.47h1.37Zm2.17,7.87v.98h-1.08v-.16h.17c.24,0,.44-.08.61-.24.17-.16.25-.36.26-.58h.03Zm1.83-8.34v9.32h-1.86v-9.32h1.86Zm-.06,8.34h.06c0,.23.09.42.26.58.17.16.38.24.62.24h.16v.16h-1.09v-.98Zm3.58-8.65v.41l-1.69-.16c.21,0,.43-.01.66-.04.23-.03.44-.06.63-.1.19-.04.33-.08.4-.11Zm0,.78v1.47h-.17v-.19c.01-.36-.09-.66-.3-.88-.21-.22-.51-.34-.9-.35v-.05h1.37Z"/>
    <path class="cls-1" d="m491.29,287.03h-.05c0-.24-.09-.44-.28-.59s-.41-.23-.67-.23h-.2v-.16h1.2v.98Zm0,7.4v.98h-1.2v-.16h.2c.26,0,.48-.08.67-.24.19-.16.28-.36.28-.58h.05Zm1.78-8.39v9.37h-1.83v-9.37h1.83Zm-.05.98v-.98h1.2l-.02.16h-.17c-.27,0-.5.08-.68.23s-.28.35-.29.59h-.05Zm0,7.4h.05c.01.23.11.42.29.58.18.16.41.24.68.24h.19v.16h-1.2v-.98Z"/>
    <path class="cls-1" d="m502.31,285.85c.79,0,1.52.11,2.19.34.67.23,1.24.56,1.73.98.49.43.87.94,1.13,1.54s.4,1.27.4,2.02-.13,1.42-.4,2.02-.64,1.11-1.13,1.54c-.49.43-1.07.76-1.73.98s-1.39.34-2.19.34-1.52-.11-2.19-.34c-.67-.23-1.24-.56-1.73-.98-.48-.43-.86-.94-1.12-1.54-.27-.6-.4-1.27-.4-2.02s.13-1.42.4-2.02c.26-.6.64-1.11,1.12-1.54.48-.43,1.06-.75,1.73-.98.67-.23,1.39-.34,2.19-.34Zm0,9.21c.68,0,1.28-.18,1.8-.53.52-.35.93-.86,1.23-1.51s.45-1.41.45-2.29-.15-1.65-.45-2.29c-.3-.64-.71-1.14-1.23-1.5-.52-.35-1.12-.53-1.8-.53s-1.28.18-1.8.53c-.52.35-.93.85-1.22,1.5-.29.65-.44,1.41-.44,2.29s.15,1.64.44,2.29.7,1.15,1.22,1.51,1.12.53,1.8.53Z"/>
    <path class="cls-1" d="m511.37,294.46v.95h-1.16v-.16h.25c.24,0,.44-.07.61-.23.17-.15.25-.34.25-.57h.05Zm-.05-8.63l1.65,1.86v7.73h-1.65v-7.76c0-.53-.05-1.14-.16-1.83h.16Zm0,0l8.99,8.09.16,1.7-8.99-8.1-.16-1.69Zm1.65,8.63c.01.23.1.42.27.57.17.15.37.23.59.23h.27v.16h-1.16v-.95h.03Zm5.82-7.46c-.01-.23-.1-.42-.26-.57-.17-.15-.36-.23-.59-.23h-.27v-.16h1.16v.95h-.03Zm1.66-.95v7.7c0,.35.01.67.04.95.03.28.06.59.12.92h-.14l-1.67-1.94v-7.64h1.66Zm-.05.95v-.95h1.17v.16h-.27c-.23,0-.43.08-.6.23-.17.15-.26.34-.26.57h-.05Z"/>
  </g>
</svg>